HIERARCHY
ROOT reference
{
  OFFSET 0 0 0
  CHANNELS 6 Xposition Yposition Zposition Zrotation Xrotation Yrotation
  JOINT Hips
  {
    OFFSET -3.04907 43.8971 -9.79659
    CHANNELS 6 Xposition Yposition Zposition Zrotation Xrotation Yrotation
    JOINT Spine
    {
      OFFSET 0 7.59534 0
      CHANNELS 6 Xposition Yposition Zposition Zrotation Xrotation Yrotation
      JOINT Spine1
      {
        OFFSET 0 23.5015 0
        CHANNELS 6 Xposition Yposition Zposition Zrotation Xrotation Yrotation
        JOINT Neck
        {
          OFFSET 0 23.405 2.12773
          CHANNELS 6 Xposition Yposition Zposition Zrotation Xrotation Yrotation
          JOINT Head
          {
            OFFSET 0 12.9677 -1.85252
            CHANNELS 6 Xposition Yposition Zposition Zrotation Xrotation Yrotation
            End Site
            {
              OFFSET 0 23.1565 0
            }
          }
        }
        JOINT LeftShoulder
        {
          OFFSET 3.62206 22.4732 -0.132728
          CHANNELS 6 Xposition Yposition Zposition Zrotation Xrotation Yrotation
          JOINT LeftArm
          {
            OFFSET 8.17784 0 0
            CHANNELS 6 Xposition Yposition Zposition Zrotation Xrotation Yrotation
            JOINT LeftForeArm
            {
              OFFSET 30.104 0 0
              CHANNELS 6 Xposition Yposition Zposition Zrotation Xrotation Yrotation
              JOINT LeftHand
              {
                OFFSET 24.4664 0 0
                CHANNELS 6 Xposition Yposition Zposition Zrotation Xrotation Yrotation
                End Site
                {
                  OFFSET 13.8939 0 0
                }
              }
            }
          }
        }
        JOINT RightShoulder
        {
          OFFSET -3.6336 22.4732 -0.132728
          CHANNELS 6 Xposition Yposition Zposition Zrotation Xrotation Yrotation
          JOINT RightArm
          {
            OFFSET -8.17784 0 0
            CHANNELS 6 Xposition Yposition Zposition Zrotation Xrotation Yrotation
            JOINT RightForeArm
            {
              OFFSET -30.104 0 0
              CHANNELS 6 Xposition Yposition Zposition Zrotation Xrotation Yrotation
              JOINT RightHand
              {
                OFFSET -24.4664 0 0
                CHANNELS 6 Xposition Yposition Zposition Zrotation Xrotation Yrotation
                End Site
                {
                  OFFSET -13.8939 0 0
                }
              }
            }
          }
        }
      }
    }
    JOINT LeftUpLeg
    {
      OFFSET 9.26261 0 0
      CHANNELS 6 Xposition Yposition Zposition Zrotation Xrotation Yrotation
      JOINT LeftLeg
      {
        OFFSET 0 -35.4897 0
        CHANNELS 6 Xposition Yposition Zposition Zrotation Xrotation Yrotation
        JOINT LeftFoot
        {
          OFFSET 0 -38.2023 0
          CHANNELS 6 Xposition Yposition Zposition Zrotation Xrotation Yrotation
          JOINT LeftToeBase
          {
            OFFSET 0 -6.0207 13.8939
            CHANNELS 6 Xposition Yposition Zposition Zrotation Xrotation Yrotation
            End Site
            {
              OFFSET 0 0 3.70504
            }
          }
        }
      }
    }
    JOINT RightUpLeg
    {
      OFFSET -9.26261 0 0
      CHANNELS 6 Xposition Yposition Zposition Zrotation Xrotation Yrotation
      JOINT RightLeg
      {
        OFFSET 0 -35.4897 0
        CHANNELS 6 Xposition Yposition Zposition Zrotation Xrotation Yrotation
        JOINT RightFoot
        {
          OFFSET 0 -38.2023 0
          CHANNELS 6 Xposition Yposition Zposition Zrotation Xrotation Yrotation
          JOINT RightToeBase
          {
            OFFSET 0 -6.0207 13.8939
            CHANNELS 6 Xposition Yposition Zposition Zrotation Xrotation Yrotation
            End Site
            {
              OFFSET 0 0 3.70504
            }
          }
        }
      }
    }
  }
}
MOTION
Frames:	5
Frame Time:	0.004
0 0 0 0 0 -0 -11.0705 75.8074 -202.348 0.177122 -0.697594 -2.58451 0 7.59534 0 -0.479163 -6.7074 0.636146 0 23.5015 -2.84217e-014 2.05143 0.733105 0.650553 -1.77636e-015 23.405 2.12773 -4.29754 25.2328 -1.84743 0 12.9677 -1.85252 1.36717 -0.141255 -2.10365 3.62206 22.4732 -0.132728 10.4207 2.7324 14.2056 8.17784 0 0 -19.1158 -2.6147 -3.17972 30.104 0 0 2.06525 1.12094 -1.53475 24.4664 0 -2.84217e-014 1.44009 1.13329 -1.18496 -3.6336 22.4732 -0.132728 -8.92133 3.669 17.8148 -8.17784 0 -2.84217e-014 16.5948 -4.96707 -5.54839 -30.104 0 2.84217e-014 -1.57835 -0.452135 0.895508 -24.4664 0 0 -9.10339 -0.442989 0.038443 9.26261 0 -2.84217e-014 2.79369 10.833 -1.37047 0 -35.4897 0 -1.03645 -7.53368 -4.24932 0 -38.2023 0 -0.12903 -3.28587 15.409 0 -6.0207 13.8939 -1.11816e-016 0 -0 -9.26261 0 -2.84217e-014 -3.65617 1.42108 -1.67963 7.10543e-015 -35.4897 0 -0.934432 6.96232 2.60226 -3.55271e-015 -38.2023 0 -0.12221 -6.85689 -2.60132 7.10543e-015 -6.0207 13.8939 -1.36664e-016 0 -7.95139e-016 
0 0 0 0 0 -0 -11.0705 75.8074 -202.348 0.177123 -0.697582 -2.58451 3.55271e-015 7.59534 0 -0.479163 -6.7074 0.636146 0 23.5015 2.84217e-014 2.03247 0.733105 0.650553 0 23.405 2.12773 -4.29687 25.2516 -1.84772 0 12.9677 -1.85252 1.37608 -0.1704 -2.09925 3.62206 22.4732 -0.132728 10.4201 2.73224 14.2193 8.17784 0 0 -19.1196 -2.66963 -3.1941 30.104 0 0 2.04654 1.12094 -1.52127 24.4664 0 0 1.45138 1.13329 -1.1848 -3.6336 22.4732 -0.132728 -8.92133 3.669 17.8148 -8.17784 -2.84217e-014 0 16.5948 -4.96707 -5.54839 -30.104 -2.84217e-014 0 -1.58742 -0.475721 0.895981 -24.4664 0 0 -9.13644 -0.465006 0.020919 9.26261 0 -2.84217e-014 2.79596 10.8498 -1.38039 0 -35.4897 0 -1.03396 -7.57279 -4.2088 0 -38.2023 0 -0.145449 -3.25321 15.3763 0 -6.0207 13.8939 -2.48481e-017 9.93923e-017 3.18055e-015 -9.26261 -1.42109e-014 0 -3.65623 1.41994 -1.67871 0 -35.4897 0 -0.941787 6.98337 2.65483 0 -38.2023 0 -0.152892 -6.87272 -2.6778 0 -6.0207 13.8939 -6.21202e-017 1.98785e-016 7.95139e-016 
0 0 0 0 0 -0 -11.0705 75.8074 -202.348 0.177475 -0.688366 -2.58979 0 7.59534 0 -0.479163 -6.7074 0.636146 0 23.5015 2.84217e-014 2.03107 0.730377 0.650553 0 23.405 2.12773 -4.29925 25.2441 -1.84267 3.55271e-015 12.9677 -1.85252 1.38575 -0.160582 -2.09331 3.62206 22.4732 -0.132728 10.4231 2.72122 14.2137 8.17784 0 0 -19.119 -2.67373 -3.17796 30.104 0 -2.84217e-014 2.0493 1.12094 -1.5272 24.4664 0 2.84217e-014 1.45243 1.1333 -1.16389 -3.6336 22.4732 -0.132728 -8.92133 3.669 17.8148 -8.17784 0 0 16.5937 -4.97774 -5.54848 -30.104 0 0 -1.62702 -0.557811 0.882441 -24.4664 2.84217e-014 -2.84217e-014 -9.07923 -0.554812 0.11952 9.26261 1.42109e-014 -2.84217e-014 2.79618 10.8178 -1.38562 0 -35.4897 0 -1.04897 -7.52707 -4.23324 0 -38.2023 -2.84217e-014 -0.118563 -3.28623 15.4035 0 -6.0207 13.8939 -1.11816e-016 1.98785e-016 -3.18055e-015 -9.26261 0 -2.84217e-014 -3.65633 1.40721 -1.68987 -7.10543e-015 -35.4897 0 -0.948488 6.9822 2.60334 0 -38.2023 0 -0.162389 -6.87682 -2.60946 0 -6.0207 13.8939 -4.09993e-016 0 7.95139e-016 
0 0 0 0 0 -0 -11.0705 75.8074 -202.348 0.177692 -0.68079 -2.60032 0 7.59534 2.84217e-014 -0.479163 -6.7074 0.636146 0 23.5015 2.84217e-014 2.03599 0.71813 0.650551 1.77636e-015 23.405 2.12773 -4.3029 25.2408 -1.83434 0 12.9677 -1.85252 1.38893 -0.143034 -2.08435 3.62206 22.4732 -0.132728 10.4213 2.72798 14.2169 8.17784 0 0 -19.1181 -2.6892 -3.18068 30.104 -2.84217e-014 0 2.04862 1.12095 -1.51607 24.4664 2.84217e-014 0 1.42596 1.13329 -1.1853 -3.6336 22.4732 -0.132728 -8.92133 3.669 17.8148 -8.17784 2.84217e-014 0 16.5948 -4.96649 -5.54839 -30.104 0 -2.84217e-014 -1.62839 -0.572427 0.876081 -24.4664 0 2.84217e-014 -9.09567 -0.568344 0.10498 9.26261 0 2.84217e-014 2.79396 10.823 -1.38115 0 -35.4897 2.84217e-014 -1.02695 -7.55423 -4.20388 0 -38.2023 2.84217e-014 -0.148079 -3.26717 15.3813 0 -6.0207 13.8939 0 0 -0 -9.26261 0 0 -3.65697 1.39746 -1.67533 0 -35.4897 2.84217e-014 -0.942827 6.97518 2.57373 0 -38.2023 2.84217e-014 -0.156635 -6.87988 -2.58531 0 -6.0207 13.8939 -2.36057e-016 0 -0 
0 0 0 0 0 -0 -11.0705 75.8074 -202.348 0.17736 -0.691138 -2.58893 0 7.59534 0 -0.479163 -6.7074 0.636146 0 23.5015 2.84217e-014 2.04177 0.720019 0.650551 0 23.405 2.12773 -4.31617 25.2356 -1.82789 0 12.9677 -1.85252 1.4016 -0.142478 -2.07678 3.62206 22.4732 -0.132728 10.4233 2.71899 14.2214 8.17784 0 0 -19.1187 -2.68037 -3.17969 30.104 0 -2.84217e-014 2.04804 1.10703 -1.51291 24.4664 0 0 1.45031 1.11909 -1.18418 -3.6336 22.4732 -0.132728 -8.9231 3.66677 17.8148 -8.17784 0 0 16.5939 -4.97558 -5.54846 -30.104 -2.84217e-014 0 -1.62649 -0.55819 0.87765 -24.4664 0 0 -9.07573 -0.554832 0.113565 9.26261 1.42109e-014 0 2.78982 10.8293 -1.36673 0 -35.4897 2.84217e-014 -1.03676 -7.54409 -4.23969 0 -38.2023 2.84217e-014 -0.176333 -3.29224 15.403 0 -6.0207 13.8939 -3.85145e-016 0 -1.59028e-015 -9.26261 1.42109e-014 0 -3.65681 1.40989 -1.66706 0 -35.4897 0 -0.933844 6.98563 2.63616 -3.55271e-015 -38.2023 0 -0.158368 -6.88484 -2.6745 0 -6.0207 13.8939 1.47846e-015 0 7.95139e-016 
